{
   "accessors" : [
      {
         "bufferView" : 2,
         "byteOffset" : 0,
         "componentType" : 5126,
         "count" : 1620,
         "max" : [ 0.006584956776350737, 0.006584956776350737, 0.006584956776350737, 1 ],
         "min" : [ 0.006584956776350737, 0.006584956776350737, 0.006584956776350737, 1 ],
         "name" : "accessor_color_m0-PolyPaper23_-262552",
         "type" : "VEC4"
      },
      {
         "bufferView" : 2,
         "byteOffset" : 25920,
         "componentType" : 5126,
         "count" : 9360,
         "max" : [ 0.006584956776350737, 0.006584956776350737, 0.006584956776350737, 1 ],
         "min" : [ 0.006584956776350737, 0.006584956776350737, 0.006584956776350737, 1 ],
         "name" : "accessor_color_m1-PolyPaper23_-262550",
         "type" : "VEC4"
      },
      {
         "bufferView" : 0,
         "byteOffset" : 0,
         "componentType" : 5123,
         "count" : 2484,
         "max" : [ 1619 ],
         "min" : [ 0 ],
         "name" : "accessor_indices_0_m0-PolyPaper23_-262552",
         "type" : "SCALAR"
      },
      {
         "bufferView" : 0,
         "byteOffset" : 4968,
         "componentType" : 5123,
         "count" : 14328,
         "max" : [ 9359 ],
         "min" : [ 0 ],
         "name" : "accessor_indices_0_m1-PolyPaper23_-262550",
         "type" : "SCALAR"
      },
      {
         "bufferView" : 1,
         "byteOffset" : 19440,
         "componentType" : 5126,
         "count" : 1620,
         "max" : [ 0.9919249, 0.9992281, 0.9978279 ],
         "min" : [ -0.9919258, -0.9992445, -0.993117 ],
         "name" : "accessor_normal_m0-PolyPaper23_-262552",
         "type" : "VEC3"
      },
      {
         "bufferView" : 1,
         "byteOffset" : 151200,
         "componentType" : 5126,
         "count" : 9360,
         "max" : [ 0.9997587, 0.9999111000000001, 0.99925 ],
         "min" : [ -0.9996769, -0.9989207, -0.9992517 ],
         "name" : "accessor_normal_m1-PolyPaper23_-262550",
         "type" : "VEC3"
      },
      {
         "bufferView" : 1,
         "byteOffset" : 0,
         "componentType" : 5126,
         "count" : 1620,
         "max" : [ 0.2708427, 1.897719, 0.308525 ],
         "min" : [ -0.161302, 1.368176, 0.1016267 ],
         "name" : "accessor_position_m0-PolyPaper23_-262552",
         "type" : "VEC3"
      },
      {
         "bufferView" : 1,
         "byteOffset" : 38880,
         "componentType" : 5126,
         "count" : 9360,
         "max" : [ 0.3746141, 2.0225, 0.4500046 ],
         "min" : [ -0.259178, 1.344817, -0.1449987 ],
         "name" : "accessor_position_m1-PolyPaper23_-262550",
         "type" : "VEC3"
      }
   ],
   "asset" : {
      "copyright" : "Unknown",
      "extras" : {
         "GOOGLE_processor_version" : 294144208
      },
      "generator" : "glTF 1-to-2 Upgrader for Google Blocks",
      "version" : "2.0"
   },
   "bufferViews" : [
      {
         "buffer" : 0,
         "byteLength" : 33624,
         "byteOffset" : 0,
         "name" : "ushortBufferView",
         "target" : 34963
      },
      {
         "buffer" : 0,
         "byteLength" : 263520,
         "byteOffset" : 33624,
         "byteStride" : 12,
         "name" : "vec3BufferView",
         "target" : 34962
      },
      {
         "buffer" : 0,
         "byteLength" : 175680,
         "byteOffset" : 297144,
         "byteStride" : 16,
         "name" : "vec4BufferView",
         "target" : 34962
      }
   ],
   "buffers" : [
      {
         "byteLength" : 472824,
         "name" : "model",
         "uri" : "model.bin"
      }
   ],
   "cameras" : [
      {
         "perspective" : {
            "yfov" : 0.7853981633974483,
            "znear" : 0.1000000014901161
         },
         "type" : "perspective"
      }
   ],
   "extensions" : {
      "KHR_lights_punctual" : {
         "lights" : [
            {
               "color" : [ 1, 0.9333333333333333, 0.8666666666666667 ],
               "intensity" : 0.25,
               "name" : "headLight",
               "type" : "directional"
            },
            {
               "color" : [ 1, 0.9333333333333333, 0.8666666666666667 ],
               "intensity" : 0.324999988079071,
               "name" : "keyLight",
               "type" : "directional"
            }
         ]
      }
   },
   "extensionsUsed" : [ "GOOGLE_backgrounds", "GOOGLE_camera_settings", "KHR_lights_punctual" ],
   "extras" : {
      "GOOGLE_initial_camera_motion" : {
         "motionPath" : "FULL_ROTATION"
      },
      "GOOGLE_lighting_rig" : {
         "disableShadows" : false
      }
   },
   "materials" : [
      {
         "alphaMode" : "OPAQUE",
         "doubleSided" : false,
         "name" : "BlocksPaper",
         "pbrMetallicRoughness" : {
            "baseColorFactor" : [ 1, 1, 1, 1 ],
            "metallicFactor" : 0,
            "roughnessFactor" : 0.6
         }
      },
      {
         "alphaMode" : "BLEND",
         "doubleSided" : false,
         "name" : "BlocksGlass",
         "pbrMetallicRoughness" : {
            "baseColorFactor" : [ 0.2, 0.2, 1, 0.3 ],
            "metallicFactor" : 1,
            "roughnessFactor" : 0.4
         }
      },
      {
         "alphaMode" : "OPAQUE",
         "doubleSided" : true,
         "name" : "BlocksGem",
         "pbrMetallicRoughness" : {
            "baseColorFactor" : [ 1, 0.4, 1, 1 ],
            "metallicFactor" : 0,
            "roughnessFactor" : 0.1
         }
      }
   ],
   "meshes" : [
      {
         "name" : "mesh_m0-PolyPaper23_-262552",
         "primitives" : [
            {
               "attributes" : {
                  "COLOR_0" : 0,
                  "NORMAL" : 4,
                  "POSITION" : 6
               },
               "indices" : 2,
               "material" : 0,
               "mode" : 4
            }
         ]
      },
      {
         "name" : "mesh_m1-PolyPaper23_-262550",
         "primitives" : [
            {
               "attributes" : {
                  "COLOR_0" : 1,
                  "NORMAL" : 5,
                  "POSITION" : 7
               },
               "indices" : 3,
               "material" : 0,
               "mode" : 4
            }
         ]
      }
   ],
   "nodes" : [
      {
         "mesh" : 1,
         "name" : "node_MeshObject-1108199424-PolyPaper23"
      },
      {
         "mesh" : 0,
         "name" : "node_MeshObject-589479360-PolyPaper23"
      },
      {
         "children" : [ 3 ]
      },
      {
         "children" : [ 4 ],
         "extras" : {
            "isTransformNode" : 1
         },
         "translation" : [ 0.07033247966884976, 1.695938343075992, 0.1596332967530562 ]
      },
      {
         "children" : [ 1, 0 ],
         "translation" : [ -0.07033247966884976, -1.695938343075992, -0.1596332967530562 ]
      },
      {
         "camera" : 0,
         "children" : [ 6 ],
         "rotation" : [
            -0.007579192208470323,
            0.5632010721955824,
            0.005166125117104744,
            0.8262689751373267
         ],
         "translation" : [ 1.352345585823059, 1.702573180198669, 0.6864763498306274 ]
      },
      {
         "extensions" : {
            "KHR_lights_punctual" : {
               "light" : 0
            }
         },
         "extras" : {
            "isHeadLight" : 1
         },
         "name" : "headLightNode",
         "translation" : [ -0.4347707647032756, 0.2173853823516378, 0.2173853823516378 ]
      },
      {
         "extensions" : {
            "KHR_lights_punctual" : {
               "light" : 1
            }
         },
         "extras" : {
            "isKeyLight" : 1
         },
         "name" : "keyLightNode",
         "rotation" : [ -0.7505326882858236, -0.3752663441429118, 0, 0.5439447166468927 ],
         "scale" : [ 0, 0, 0.4391184723503083 ],
         "translation" : [ -0.3712291066087725, 2.582063444044187, -0.2854821479873159 ]
      }
   ],
   "scene" : 0,
   "scenes" : [
      {
         "extensions" : {
            "GOOGLE_backgrounds" : {
               "color" : [ 0.9803921568627451, 0.9803921568627451, 0.9803921568627451 ]
            },
            "GOOGLE_camera_settings" : {}
         },
         "extras" : {
            "GOOGLE_camera_index" : {
               "cameraIndex" : 0,
               "nodeIndex" : 5
            },
            "GOOGLE_geometry_data" : {
               "stats" : {
                  "centroid" : [ 0.06788936574153584, 1.70382649934357, 0.1536363243629925 ],
                  "radius" : 0.4347707647032756,
                  "stdev" : 0.2883286798823581
               },
               "visualCenterPoint" : [ 0.07033247966884976, 1.695938343075992, 0.1596332967530562 ]
            },
            "GOOGLE_hemi_light" : {
               "groundColor" : [ 0.9803921568627451, 0.9803921568627451, 0.9803921568627451 ]
            }
         },
         "name" : "defaultScene",
         "nodes" : [ 2, 5, 7 ]
      }
   ]
}
