{
  "accessors": [
    {
      "bufferView": 0,
      "byteOffset": 0,
      "componentType": 5123,
      "count": 2796,
      "max": [
        2781.0
      ],
      "min": [
        0.0
      ],
      "name": "buffer-0-group-0-mesh-0-indices",
      "type": "SCALAR"
    },
    {
      "bufferView": 1,
      "byteOffset": 0,
      "componentType": 5126,
      "count": 2782,
      "max": [
        0.7358760237693787,
        2.084275007247925,
        0.4801900088787079
      ],
      "min": [
        -0.9981650114059448,
        0.4828380048274994,
        -1.498615026473999
      ],
      "name": "buffer-0-group-0-mesh-0-position",
      "type": "VEC3"
    },
    {
      "bufferView": 1,
      "byteOffset": 33384,
      "componentType": 5126,
      "count": 2782,
      "max": [
        0.9979006052017212,
        1.0,
        0.9968159794807434
      ],
      "min": [
        -0.9995713233947754,
        -1.0,
        -0.9880805015563965
      ],
      "name": "buffer-0-group-0-mesh-0-normal",
      "type": "VEC3"
    },
    {
      "bufferView": 2,
      "byteOffset": 0,
      "componentType": 5126,
      "count": 2782,
      "max": [
        0.977150022983551,
        -0.013896999880671501
      ],
      "min": [
        0.014030000194907188,
        -0.9710389971733093
      ],
      "name": "buffer-0-group-0-mesh-0-texcoord",
      "type": "VEC2"
    },
    {
      "bufferView": 0,
      "byteOffset": 5592,
      "componentType": 5123,
      "count": 2532,
      "max": [
        2531.0
      ],
      "min": [
        0.0
      ],
      "name": "buffer-0-group-1-mesh-0-indices",
      "type": "SCALAR"
    },
    {
      "bufferView": 1,
      "byteOffset": 66768,
      "componentType": 5126,
      "count": 2532,
      "max": [
        1.597040057182312,
        1.5763169527053833,
        2.9294440746307373
      ],
      "min": [
        -1.85139799118042,
        0.21382500231266022,
        1.7457820177078247
      ],
      "name": "buffer-0-group-1-mesh-0-position",
      "type": "VEC3"
    },
    {
      "bufferView": 1,
      "byteOffset": 97152,
      "componentType": 5126,
      "count": 2532,
      "max": [
        0.04137089475989342,
        0.6834393739700317,
        0.7362051010131836
      ],
      "min": [
        0.03841307386755943,
        0.6756674647331238,
        0.7288643717765808
      ],
      "name": "buffer-0-group-1-mesh-0-normal",
      "type": "VEC3"
    },
    {
      "bufferView": 0,
      "byteOffset": 10656,
      "componentType": 5123,
      "count": 3252,
      "max": [
        3251.0
      ],
      "min": [
        0.0
      ],
      "name": "buffer-0-group-2-mesh-0-indices",
      "type": "SCALAR"
    },
    {
      "bufferView": 1,
      "byteOffset": 127536,
      "componentType": 5126,
      "count": 3252,
      "max": [
        1.6307140588760376,
        4.048954010009766,
        1.028717041015625
      ],
      "min": [
        -2.53871488571167,
        -0.12162700295448303,
        -3.0689220428466797
      ],
      "name": "buffer-0-group-2-mesh-0-position",
      "type": "VEC3"
    },
    {
      "bufferView": 1,
      "byteOffset": 166560,
      "componentType": 5126,
      "count": 3252,
      "max": [
        0.9949101209640503,
        0.9951856136322021,
        0.9997236728668213
      ],
      "min": [
        -0.9949097633361816,
        -0.9951850771903992,
        -0.9924585223197937
      ],
      "name": "buffer-0-group-2-mesh-0-normal",
      "type": "VEC3"
    },
    {
      "bufferView": 0,
      "byteOffset": 17160,
      "componentType": 5123,
      "count": 36,
      "max": [
        33.0
      ],
      "min": [
        0.0
      ],
      "name": "buffer-0-group-3-mesh-0-indices",
      "type": "SCALAR"
    },
    {
      "bufferView": 1,
      "byteOffset": 205584,
      "componentType": 5126,
      "count": 34,
      "max": [
        2.9710609912872314,
        0.10164599865674973,
        -0.14549599587917328
      ],
      "min": [
        -3.849350929260254,
        -0.2519089877605438,
        -1.2163209915161133
      ],
      "name": "buffer-0-group-3-mesh-0-position",
      "type": "VEC3"
    },
    {
      "bufferView": 1,
      "byteOffset": 205992,
      "componentType": 5126,
      "count": 34,
      "max": [
        0.999723494052887,
        1.0,
        0.999723494052887
      ],
      "min": [
        -0.999723494052887,
        -1.0,
        -0.999723494052887
      ],
      "name": "buffer-0-group-3-mesh-0-normal",
      "type": "VEC3"
    }
  ],
  "asset": {
    "generator": "Obj2GltfConverter",
    "version": "2.0"
  },
  "bufferViews": [
    {
      "buffer": 0,
      "byteLength": 17232,
      "byteOffset": 0,
      "name": "buffer-0-bufferview-ushort",
      "target": 34963
    },
    {
      "buffer": 0,
      "byteLength": 206400,
      "byteOffset": 17232,
      "byteStride": 12,
      "name": "buffer-0-bufferview-vec3",
      "target": 34962
    },
    {
      "buffer": 0,
      "byteLength": 22256,
      "byteOffset": 223632,
      "byteStride": 8,
      "name": "buffer-0-bufferview-vec2",
      "target": 34962
    }
  ],
  "buffers": [
    {
      "byteLength": 245888,
      "name": "buffer-0",
      "uri": "hornero.bin"
    }
  ],
  "materials": [
    {
      "alphaMode": "OPAQUE",
      "doubleSided": true,
      "name": "Material.004",
      "pbrMetallicRoughness": {
        "baseColorFactor": [
          0.64,
          0.133991,
          0.001538,
          1.0
        ],
        "metallicFactor": 0.0,
        "roughnessFactor": 0.7448017359246658
      }
    },
    {
      "alphaMode": "OPAQUE",
      "doubleSided": true,
      "name": "Material.003",
      "pbrMetallicRoughness": {
        "baseColorFactor": [
          0.003149,
          0.0,
          2.9E-5,
          1.0
        ],
        "metallicFactor": 0.0,
        "roughnessFactor": 0.7448017359246658
      }
    },
    {
      "alphaMode": "OPAQUE",
      "doubleSided": true,
      "name": "Material.001",
      "pbrMetallicRoughness": {
        "baseColorFactor": [
          1.0,
          0.005529,
          0.004234,
          1.0
        ],
        "metallicFactor": 0.0,
        "roughnessFactor": 0.7448017359246658
      }
    },
    {
      "alphaMode": "OPAQUE",
      "doubleSided": true,
      "name": "Material.002",
      "pbrMetallicRoughness": {
        "baseColorFactor": [
          0.046242,
          8.56E-4,
          0.001697,
          1.0
        ],
        "metallicFactor": 0.0,
        "roughnessFactor": 0.7448017359246658
      }
    }
  ],
  "meshes": [
    {
      "name": "buffer-0-mesh-0",
      "primitives": [
        {
          "attributes": {
            "POSITION": 1,
            "NORMAL": 2,
            "TEXCOORD_0": 3
          },
          "indices": 0,
          "material": 0,
          "mode": 4
        },
        {
          "attributes": {
            "POSITION": 5,
            "NORMAL": 6
          },
          "indices": 4,
          "material": 1,
          "mode": 4
        },
        {
          "attributes": {
            "POSITION": 8,
            "NORMAL": 9
          },
          "indices": 7,
          "material": 2,
          "mode": 4
        },
        {
          "attributes": {
            "POSITION": 11,
            "NORMAL": 12
          },
          "indices": 10,
          "material": 3,
          "mode": 4
        }
      ]
    }
  ],
  "nodes": [
    {
      "mesh": 0,
      "name": "node-0"
    }
  ],
  "scenes": [
    {
      "name": "scene-0",
      "nodes": [
        0
      ]
    }
  ]
}